<svg xmlns="http://www.w3.org/2000/svg" style="display:none">

<!-- CRUNCHYROLL ICON  -->
<symbol id="icon-crunchyroll" viewBox="0 0 24 24"><path fill="currentColor" d="M2.933 13.467a10.55 10.55 0 1 1 21.067-.8V12c0-6.627-5.373-12-12-12S0 5.373 0 12s5.373 12 12 12h.8a10.617 10.617 0 0 1-9.867-10.533zM19.2 14a3.85 3.85 0 0 1-1.333-7.467A7.89 7.89 0 0 0 14 5.6a8.4 8.4 0 1 0 8.4 8.4a6.492 6.492 0 0 0-.133-1.6A3.415 3.415 0 0 1 19.2 14z"/></symbol>

<!-- FACEBOOK ICON  -->
<symbol id="icon-facebook" viewBox="0 0 224 432"><path fill="currentColor" d="M145 429H66V235H0v-76h66v-56q0-48 27-74t72-26q36 0 59 3v67l-41 1q-22 0-30 9t-8 27v49h76l-10 76h-66v194z"/></symbol>

<!-- X ICON  -->
<symbol id="icon-x" viewBox="0 0 24 24"><path fill="none" stroke="currentColor" stroke-linecap="round" stroke-linejoin="round" stroke-width="2" d="m3 21l7.5-7.5m3-3L21 3M8 3H3l13 18h5Z"/></symbol>

</svg>